<svg height="512" viewBox="0 0 512 512" width="512" xmlns="http://www.w3.org/2000/svg"><g id="flat"><circle cx="256" cy="248" fill="#009cf7" r="32"/><path d="m368 200h-32v24l16 8-8 32a71.716 71.716 0 0 0 -46.751 37.5l-1.249 2.5-.808-.162a199.855 199.855 0 0 0 -78.384 0l-.808.162-1.249-2.5a71.716 71.716 0 0 0 -46.751-37.5l-8-32 16-8v-24h-32l-16 32v26.583a80.649 80.649 0 0 0 10.626 40.017 123.524 123.524 0 0 0 61.374 53.4l16 48-8 32h96l-8-32 16-48a123.524 123.524 0 0 0 61.374-53.4 80.649 80.649 0 0 0 10.626-40.017v-26.583z" fill="#009cf7"/><path d="m24 264a231.278 231.278 0 0 0 67.951 164.049l33.941-33.941a184 184 0 0 1 0-260.216l-33.941-33.941a231.278 231.278 0 0 0 -67.951 164.049z" fill="#ffc864"/><path d="m420.049 99.951-33.942 33.941a184 184 0 0 1 0 260.216l33.942 33.941a232 232 0 0 0 0-328.1z" fill="#02a437"/><path d="m256 32a231.278 231.278 0 0 0 -164.049 67.951l33.941 33.941a184 184 0 0 1 260.215 0l33.942-33.941a231.278 231.278 0 0 0 -164.049-67.951z" fill="#fd9226"/><path d="m128 432h256v48h-256z" fill="#eae9e4"/><path d="m128 432h256v16h-256z" fill="#cdccc8"/></g></svg>