<svg id="Capa_1" enable-background="new 0 0 511.999 511.999" height="512" viewBox="0 0 511.999 511.999" width="512" xmlns="http://www.w3.org/2000/svg"><g><g><path d="m357.57 103.093h-203.14c-2.446 0-4.763-1.098-6.312-2.991l-22.119-27.032c-2.458-3.004-2.458-7.325 0-10.329l22.119-27.032c1.549-1.893 3.866-2.991 6.312-2.991h203.14c2.446 0 4.763 1.098 6.312 2.991l22.119 27.032c2.458 3.004 2.458 7.325 0 10.329l-22.119 27.032c-1.549 1.893-3.866 2.991-6.312 2.991z" fill="#365e7d"/><path d="m386.002 62.74-22.12-27.032c-1.549-1.893-3.866-2.991-6.312-2.991h-23.45c2.446 0 4.763 1.098 6.312 2.991l22.12 27.032c2.458 3.004 2.458 7.325 0 10.329l-22.12 27.032c-1.549 1.893-3.866 2.991-6.312 2.991h23.45c2.446 0 4.763-1.098 6.312-2.991l22.12-27.032c2.458-3.004 2.458-7.325 0-10.329z" fill="#2b4d66"/><path d="m357.57 200.516h-203.14c-2.446 0-4.763-1.098-6.312-2.991l-22.119-27.032c-2.458-3.004-2.458-7.325 0-10.329l22.119-27.032c1.549-1.893 3.866-2.991 6.312-2.991h203.14c2.446 0 4.763 1.098 6.312 2.991l22.119 27.032c2.458 3.004 2.458 7.325 0 10.329l-22.119 27.032c-1.549 1.894-3.866 2.991-6.312 2.991z" fill="#365e7d"/><path d="m386.002 160.164-22.12-27.032c-1.549-1.893-3.866-2.991-6.312-2.991h-23.45c2.446 0 4.763 1.098 6.312 2.991l22.12 27.032c2.458 3.004 2.458 7.325 0 10.329l-22.12 27.032c-1.549 1.893-3.866 2.991-6.312 2.991h23.45c2.446 0 4.763-1.098 6.312-2.991l22.12-27.032c2.458-3.004 2.458-7.325 0-10.329z" fill="#2b4d66"/><path d="m164.478 103.093h183.044v27.048h-183.044z" fill="#d0e2e7"/></g><path d="m256 479.282-181.56-40.344c-7.55-1.678-12.922-8.374-12.922-16.108v-222.673h194.482z" fill="#ffe07d"/><path d="m235.167 200.157v274.496l20.833 4.629v-279.125z" fill="#ffd064"/><path d="m256 479.282 181.56-40.344c7.55-1.678 12.922-8.374 12.922-16.108v-222.673h-194.482z" fill="#ffe07d"/><path d="m429.368 200.157v240.602l8.192-1.82c7.55-1.678 12.922-8.374 12.922-16.108v-222.674z" fill="#ffd064"/><path d="m61.519 200.157h194.481l-54.018 72.124h-194.482z" fill="#ffd064"/><path d="m227.5 200.157-54.018 72.124h28.5l54.018-72.124z" fill="#e7a561"/><path d="m450.482 200.157h-194.482l54.019 72.124h194.481z" fill="#ffd064"/><path d="m450.482 200.157h-27.01l54.019 72.124h27.009z" fill="#e7a561"/><g><path d="m169.343 67.905c0 4.143 3.357 7.5 7.5 7.5h6.838c4.143 0 7.5-3.357 7.5-7.5s-3.357-7.5-7.5-7.5h-6.838c-4.143 0-7.5 3.357-7.5 7.5z"/><path d="m215.365 75.405c4.143 0 7.5-3.357 7.5-7.5s-3.357-7.5-7.5-7.5h-6.838c-4.143 0-7.5 3.357-7.5 7.5s3.357 7.5 7.5 7.5z"/><path d="m247.05 75.405c4.143 0 7.5-3.357 7.5-7.5s-3.357-7.5-7.5-7.5h-6.838c-4.143 0-7.5 3.357-7.5 7.5s3.357 7.5 7.5 7.5z"/><path d="m183.68 157.828h-6.838c-4.143 0-7.5 3.357-7.5 7.5s3.357 7.5 7.5 7.5h6.838c4.143 0 7.5-3.357 7.5-7.5s-3.357-7.5-7.5-7.5z"/><path d="m215.365 157.828h-6.838c-4.143 0-7.5 3.357-7.5 7.5s3.357 7.5 7.5 7.5h6.838c4.143 0 7.5-3.357 7.5-7.5s-3.357-7.5-7.5-7.5z"/><path d="m247.05 157.828h-6.838c-4.143 0-7.5 3.357-7.5 7.5s3.357 7.5 7.5 7.5h6.838c4.143 0 7.5-3.357 7.5-7.5s-3.358-7.5-7.5-7.5z"/><path d="m328.356 423.508c-4.043.898-6.593 4.904-5.694 8.948.776 3.496 3.876 5.875 7.314 5.875.538 0 1.086-.059 1.634-.181l67.43-14.983c4.043-.898 6.593-4.904 5.694-8.948-.897-4.043-4.901-6.596-8.948-5.694z"/><path d="m510.503 267.785-54.019-72.125c-1.416-1.891-3.641-3.004-6.003-3.004h-72.924l14.25-17.414c4.699-5.745 4.698-14.084-.001-19.828l-22.12-27.032c-2.986-3.648-7.402-5.741-12.116-5.741h-2.548v-12.048h2.548c4.713 0 9.128-2.092 12.117-5.742l22.12-27.032c4.699-5.745 4.698-14.084-.001-19.828l-22.12-27.032c-2.986-3.648-7.402-5.741-12.116-5.741h-158.895c-4.143 0-7.5 3.357-7.5 7.5s3.357 7.5 7.5 7.5h158.895c.197 0 .383.088.508.241l22.119 27.032c.197.24.196.59 0 .829l-22.117 27.03c-.126.154-.312.243-.51.243h-14.913v-8.42c0-4.143-3.357-7.5-7.5-7.5s-7.5 3.357-7.5 7.5v8.42h-12.043v-8.42c0-4.143-3.357-7.5-7.5-7.5s-7.5 3.357-7.5 7.5v8.42h-12.043v-8.42c0-4.143-3.357-7.5-7.5-7.5s-7.5 3.357-7.5 7.5v8.42h-119.142c-.197 0-.382-.088-.507-.24l-22.119-27.032c-.196-.24-.197-.59 0-.83l22.12-27.034c.124-.152.309-.239.506-.239h14.258c4.143 0 7.5-3.357 7.5-7.5s-3.357-7.5-7.5-7.5h-14.258c-4.715 0-9.132 2.093-12.116 5.741l-22.119 27.032c-4.699 5.744-4.7 14.083 0 19.829l22.12 27.032c2.985 3.648 7.401 5.741 12.115 5.741h2.549v12.048h-2.549c-4.715 0-9.132 2.093-12.116 5.741l-22.118 27.031c-4.702 5.744-4.702 14.084-.001 19.83l14.249 17.413h-72.925c-2.362 0-4.587 1.113-6.003 3.004l-54.018 72.125c-1.702 2.273-1.975 5.312-.704 7.853s3.867 4.144 6.707 4.144h46.519v143.048c0 11.335 7.729 20.97 18.795 23.429l34.821 7.737c4.018.895 8.045-1.627 8.948-5.694.898-4.044-1.651-8.05-5.694-8.948l-34.821-7.737c-4.15-.923-7.049-4.535-7.049-8.786v-143.049h132.963c2.362 0 4.587-1.113 6.003-3.004l40.516-54.096v247.25l-107.625-23.914c-4.044-.906-8.051 1.651-8.948 5.694-.898 4.044 1.651 8.05 5.694 8.948l116.752 25.942c1.021.227 2.133.251 3.254 0l181.561-40.344c11.065-2.459 18.794-12.093 18.794-23.429v-143.047h46.517c2.84 0 5.437-1.604 6.707-4.144s.998-5.579-.704-7.853zm-338.525-157.192h168.044v12.048h-168.044zm-40.175 55.15c-.197-.24-.197-.589 0-.829l22.12-27.034c.124-.152.309-.239.506-.239h203.141c.197 0 .383.088.508.241l22.119 27.032c.197.24.196.59 0 .829l-22.021 26.913h-15.519v-8.06c0-4.143-3.357-7.5-7.5-7.5s-7.5 3.357-7.5 7.5v8.06h-12.043v-8.06c0-4.143-3.357-7.5-7.5-7.5s-7.5 3.357-7.5 7.5v8.06h-12.043v-8.06c0-4.143-3.357-7.5-7.5-7.5s-7.5 3.357-7.5 7.5v8.06h-119.747zm66.425 99.039h-175.741l42.784-57.125c13.82.028 159.163.327 175.471.36zm205.643 0c-4.143 0-7.5 3.357-7.5 7.5s3.357 7.5 7.5 7.5h39.11v143.048c0 4.251-2.898 7.864-7.048 8.786l-172.433 38.316v-247.25l40.516 54.096c1.416 1.891 3.641 3.004 6.003 3.004h63.865c4.143 0 7.5-3.357 7.5-7.5s-3.357-7.5-7.5-7.5h-60.112l-42.514-56.765c16.287-.033 161.675-.332 175.471-.36l42.784 57.125z"/></g></g></svg>