<svg id="Capa_1" enable-background="new 0 0 511.999 511.999" height="512" viewBox="0 0 511.999 511.999" width="512" xmlns="http://www.w3.org/2000/svg"><g><path d="m475.74 379.904h-439.482v-276.801c0-13.769 11.162-24.932 24.932-24.932h389.618c13.769 0 24.932 11.162 24.932 24.932z" fill="#365e7d"/><path d="m450.809 78.171h-25.27c13.769 0 24.932 11.162 24.932 24.932v221.974c0 17.428-14.128 31.556-31.556 31.556h-382.657v23.27h439.482v-276.8c0-13.77-11.162-24.932-24.931-24.932z" fill="#2b4d66"/><path d="m66.259 346.422v-234.769c0-1.923 1.559-3.482 3.482-3.482h372.518c1.923 0 3.482 1.559 3.482 3.482v234.769c0 1.923-1.559 3.482-3.482 3.482h-372.518c-1.923 0-3.482-1.559-3.482-3.482z" fill="#f6f9f9"/><path d="m442.258 108.171h-22.058c1.923 0 3.482 1.559 3.482 3.482v234.769c0 1.923-1.559 3.482-3.482 3.482h22.058c1.923 0 3.482-1.559 3.482-3.482v-234.769c0-1.923-1.559-3.482-3.482-3.482z" fill="#dfeaef"/><path d="m494.536 433.827h-477.073c-5.503 0-9.963-4.461-9.963-9.963v-33.997c0-5.503 4.461-9.963 9.963-9.963h477.073c5.503 0 9.963 4.461 9.963 9.963v33.997c0 5.503-4.46 9.963-9.963 9.963z" fill="#365e7d"/><path d="m494.536 379.904h-22.98c5.503 0 9.963 4.461 9.963 9.963v33.997c0 5.503-4.461 9.963-9.963 9.963h22.98c5.502 0 9.963-4.461 9.963-9.963v-33.997c0-5.503-4.46-9.963-9.963-9.963z" fill="#2b4d66"/><path d="m294.8 406.865h-77.602c-5.344 0-10.296-2.803-13.046-7.385l-11.749-19.576h127.192l-11.749 19.576c-2.75 4.582-7.702 7.385-13.046 7.385z" fill="#d0e2e7"/><g><g><path d="m251.917 134.593c17.165 0 32.075 9.837 39.388 24.17 1.064 2.086 3.25 3.354 5.588 3.217 22.311-1.315 41.474 16.478 41.584 39.071.106 21.736-18.126 39.519-39.862 39.519h-90.17c-19.056 0-34.848-15.271-34.922-34.326-.068-17.504 13.105-32.438 30.659-34.382 2.417-.268 4.39-2.023 5.012-4.374 5.001-18.914 22.26-32.895 42.723-32.895z" fill="#b1e4f9"/><g><path d="m296.893 161.979c-2.338.138-4.524-1.13-5.588-3.217-7.313-14.333-22.222-24.17-39.388-24.17-16.649 0-31.176 9.256-38.707 22.892 7.019-4.698 15.45-7.444 24.512-7.444 17.165 0 32.075 9.837 39.388 24.17 1.064 2.086 3.25 3.354 5.588 3.217 22.311-1.315 41.474 16.478 41.584 39.071.031 6.408-1.542 12.468-4.319 17.834 11.102-7.04 18.582-19.344 18.514-33.282-.11-22.593-19.273-40.386-41.584-39.071z" fill="#90d8f9"/></g></g></g><g><path d="m137.309 279.54v20.12c0 4.143 3.357 7.5 7.5 7.5s7.5-3.357 7.5-7.5v-12.62h96.191v12.62c0 4.143 3.357 7.5 7.5 7.5s7.5-3.357 7.5-7.5v-12.62h96.19v12.62c0 4.143 3.357 7.5 7.5 7.5s7.5-3.357 7.5-7.5v-20.12c0-4.143-3.357-7.5-7.5-7.5h-103.69v-6.634c0-4.143-3.357-7.5-7.5-7.5s-7.5 3.357-7.5 7.5v6.634h-103.691c-4.143 0-7.5 3.357-7.5 7.5z"/><path d="m127.698 323.483c0 4.143 3.357 7.5 7.5 7.5h19.221c4.143 0 7.5-3.357 7.5-7.5s-3.357-7.5-7.5-7.5h-19.221c-4.142 0-7.5 3.357-7.5 7.5z"/><path d="m246.389 315.983c-4.143 0-7.5 3.357-7.5 7.5s3.357 7.5 7.5 7.5h19.222c4.143 0 7.5-3.357 7.5-7.5s-3.357-7.5-7.5-7.5z"/><path d="m350.08 323.483c0 4.143 3.357 7.5 7.5 7.5h19.221c4.143 0 7.5-3.357 7.5-7.5s-3.357-7.5-7.5-7.5h-19.221c-4.142 0-7.5 3.357-7.5 7.5z"/><path d="m299.153 248.069c25.819 0 46.824-21.005 46.824-46.824 0-13.705-5.997-26.685-16.453-35.611-8.963-7.652-20.384-11.587-32.003-11.188-8.928-16.786-26.269-27.354-45.604-27.354-23.428 0-43.459 15.429-49.703 37.453-8.979 1.237-17.261 5.312-23.778 11.788-8.005 7.954-12.413 18.527-12.413 29.773 0 23.138 18.824 41.962 41.962 41.962h91.168zm-118.131-41.962c0-7.222 2.836-14.017 7.986-19.134 5.084-5.052 11.851-7.828 19.071-7.828.076 0 .149 0 .228.001 3.674 0 6.81-2.663 7.401-6.294 2.904-17.823 18.132-30.76 36.208-30.76 15.086 0 28.463 9.067 34.08 23.102 1.301 3.251 4.67 5.169 8.139 4.62 9.212-1.461 18.558 1.173 25.649 7.228 7.113 6.072 11.192 14.895 11.192 24.203 0 17.548-14.276 31.824-31.824 31.824h-91.169c-14.866 0-26.961-12.095-26.961-26.962z"/><path d="m251.194 216.496h9.61c4.143 0 7.5-3.357 7.5-7.5s-3.357-7.5-7.5-7.5h-9.61c-4.143 0-7.5 3.357-7.5 7.5s3.358 7.5 7.5 7.5z"/><path d="m66.259 287.033c-4.143 0-7.5 3.357-7.5 7.5v51.889c0 6.056 4.927 10.982 10.981 10.982h372.518c6.056 0 10.982-4.927 10.982-10.982v-234.769c0-6.055-4.927-10.981-10.982-10.981h-372.518c-6.055 0-10.981 4.927-10.981 10.981v152.894c0 4.143 3.357 7.5 7.5 7.5s7.5-3.357 7.5-7.5v-148.876h364.481v226.732h-364.481v-47.871c0-4.142-3.358-7.499-7.5-7.499z"/><path d="m494.536 372.404h-11.296v-269.301c0-17.883-14.549-32.432-32.432-32.432h-44.021c-4.143 0-7.5 3.357-7.5 7.5s3.357 7.5 7.5 7.5h44.021c9.612 0 17.432 7.819 17.432 17.432v269.301h-424.482v-269.301c0-9.612 7.82-17.432 17.433-17.432h315.61c4.143 0 7.5-3.357 7.5-7.5s-3.357-7.5-7.5-7.5h-315.611c-17.884 0-32.433 14.549-32.433 32.432v269.301h-11.294c-9.629 0-17.463 7.834-17.463 17.463v33.997c0 9.63 7.834 17.464 17.463 17.464h359.338c4.143 0 7.5-3.357 7.5-7.5s-3.357-7.5-7.5-7.5h-359.338c-1.358 0-2.463-1.105-2.463-2.464v-33.997c0-1.358 1.104-2.463 2.463-2.463h170.695l9.564 15.936c4.082 6.802 11.545 11.026 19.477 11.026h77.601c7.933 0 15.396-4.225 19.478-11.026l9.564-15.936h170.695c1.358 0 2.463 1.104 2.463 2.463v33.997c0 1.358-1.104 2.464-2.463 2.464h-87.749c-4.143 0-7.5 3.357-7.5 7.5s3.357 7.5 7.5 7.5h87.749c9.629 0 17.463-7.834 17.463-17.464v-33.997c-.001-9.629-7.835-17.463-17.464-17.463zm-193.12 23.217c-1.387 2.31-3.922 3.745-6.616 3.745h-77.602c-2.694 0-5.229-1.436-6.615-3.745l-4.932-8.217h100.696z"/></g></g></svg>